<svg id="visual" viewBox="0 0 960 540" width="960" height="540" xmlns="http://www.w3.org/2000/svg" xmlns:xlink="http://www.w3.org/1999/xlink" version="1.1"><path d="M0 147L40 137C80 127 160 107 240 109.7C320 112.3 400 137.7 480 136.8C560 136 640 109 720 100C800 91 880 100 920 104.5L960 109L960 0L920 0C880 0 800 0 720 0C640 0 560 0 480 0C400 0 320 0 240 0C160 0 80 0 40 0L0 0Z" fill="#2c3845"></path><path d="M0 206L40 195.2C80 184.3 160 162.7 240 160C320 157.3 400 173.7 480 173.7C560 173.7 640 157.3 720 154.7C800 152 880 163 920 168.5L960 174L960 107L920 102.5C880 98 800 89 720 98C640 107 560 134 480 134.8C400 135.7 320 110.3 240 107.7C160 105 80 125 40 135L0 145Z" fill="#2f3d4c"></path><path d="M0 239L40 231.7C80 224.3 160 209.7 240 207.8C320 206 400 217 480 217C560 217 640 206 720 201.5C800 197 880 199 920 200L960 201L960 172L920 166.5C880 161 800 150 720 152.7C640 155.3 560 171.7 480 171.7C400 171.7 320 155.3 240 158C160 160.7 80 182.3 40 193.2L0 204Z" fill="#324252"></path><path d="M0 320L40 306.5C80 293 160 266 240 262.3C320 258.7 400 278.3 480 281C560 283.7 640 269.3 720 266.7C800 264 880 273 920 277.5L960 282L960 199L920 198C880 197 800 195 720 199.5C640 204 560 215 480 215C400 215 320 204 240 205.8C160 207.7 80 222.3 40 229.7L0 237Z" fill="#354759"></path><path d="M0 411L40 412.8C80 414.7 160 418.3 240 416.7C320 415 400 408 480 408C560 408 640 415 720 411.3C800 407.7 880 393.3 920 386.2L960 379L960 280L920 275.5C880 271 800 262 720 264.7C640 267.3 560 281.7 480 279C400 276.3 320 256.7 240 260.3C160 264 80 291 40 304.5L0 318Z" fill="#384c60"></path><path d="M0 444L40 451.2C80 458.3 160 472.7 240 475.3C320 478 400 469 480 467.2C560 465.3 640 470.7 720 468C800 465.3 880 454.7 920 449.3L960 444L960 377L920 384.2C880 391.3 800 405.7 720 409.3C640 413 560 406 480 406C400 406 320 413 240 414.7C160 416.3 80 412.7 40 410.8L0 409Z" fill="#3c5167"></path><path d="M0 541L40 541C80 541 160 541 240 541C320 541 400 541 480 541C560 541 640 541 720 541C800 541 880 541 920 541L960 541L960 442L920 447.3C880 452.7 800 463.3 720 466C640 468.7 560 463.3 480 465.2C400 467 320 476 240 473.3C160 470.7 80 456.3 40 449.2L0 442Z" fill="#3f566e"></path></svg>