<svg id="visual" viewBox="0 0 960 540" width="960" height="540" xmlns="http://www.w3.org/2000/svg" xmlns:xlink="http://www.w3.org/1999/xlink" version="1.1"><path d="M0 98L40 103.5C80 109 160 120 240 118.2C320 116.3 400 101.7 480 93.5C560 85.3 640 83.7 720 76.5C800 69.3 880 56.7 920 50.3L960 44L960 0L920 0C880 0 800 0 720 0C640 0 560 0 480 0C400 0 320 0 240 0C160 0 80 0 40 0L0 0Z" fill="#ffe7e7"></path><path d="M0 109L40 118C80 127 160 145 240 151.3C320 157.7 400 152.3 480 148.7C560 145 640 143 720 133C800 123 880 105 920 96L960 87L960 42L920 48.3C880 54.7 800 67.3 720 74.5C640 81.7 560 83.3 480 91.5C400 99.7 320 114.3 240 116.2C160 118 80 107 40 101.5L0 96Z" fill="#ffd9dd"></path><path d="M0 195L40 205.8C80 216.7 160 238.3 240 264.5C320 290.7 400 321.3 480 316C560 310.7 640 269.3 720 252.2C800 235 880 242 920 245.5L960 249L960 85L920 94C880 103 800 121 720 131C640 141 560 143 480 146.7C400 150.3 320 155.7 240 149.3C160 143 80 125 40 116L0 107Z" fill="#ffccd6"></path><path d="M0 379L40 375.3C80 371.7 160 364.3 240 368C320 371.7 400 386.3 480 390C560 393.7 640 386.3 720 384.5C800 382.7 880 386.3 920 388.2L960 390L960 247L920 243.5C880 240 800 233 720 250.2C640 267.3 560 308.7 480 314C400 319.3 320 288.7 240 262.5C160 236.3 80 214.7 40 203.8L0 193Z" fill="#ffbed1"></path><path d="M0 438L40 437.2C80 436.3 160 434.7 240 440.2C320 445.7 400 458.3 480 461C560 463.7 640 456.3 720 453.7C800 451 880 453 920 454L960 455L960 388L920 386.2C880 384.3 800 380.7 720 382.5C640 384.3 560 391.7 480 388C400 384.3 320 369.7 240 366C160 362.3 80 369.7 40 373.3L0 377Z" fill="#fcb1cf"></path><path d="M0 476L40 476C80 476 160 476 240 482.3C320 488.7 400 501.3 480 505C560 508.7 640 503.3 720 500.7C800 498 880 498 920 498L960 498L960 453L920 452C880 451 800 449 720 451.7C640 454.3 560 461.7 480 459C400 456.3 320 443.7 240 438.2C160 432.7 80 434.3 40 435.2L0 436Z" fill="#f7a4cf"></path><path d="M0 541L40 541C80 541 160 541 240 541C320 541 400 541 480 541C560 541 640 541 720 541C800 541 880 541 920 541L960 541L960 496L920 496C880 496 800 496 720 498.7C640 501.3 560 506.7 480 503C400 499.3 320 486.7 240 480.3C160 474 80 474 40 474L0 474Z" fill="#f098d1"></path></svg>