
<svg width="48" height="48" viewBox="0 0 48 48" xmlns="http://www.w3.org/2000/svg">
<path fill-rule="evenodd" clip-rule="evenodd" d="M24 46C36.1503 46 46 36.1503 46 24C46 11.8497 36.1503 2 24 2C11.8497 2 2 11.8497 2 24C2 36.1503 11.8497 46 24 46ZM15.4286 12C13.535 12 12 13.535 12 15.4286V32.5714C12 34.465 13.535 36 15.4286 36H32.5714C34.465 36 36 34.465 36 32.5714V15.4286C36 13.535 34.465 12 32.5714 12H15.4286ZM15.4286 14.2857C14.7974 14.2857 14.2857 14.7974 14.2857 15.4286V32.5714C14.2857 33.2026 14.7974 33.7143 15.4286 33.7143H32.5714C33.2026 33.7143 33.7143 33.2026 33.7143 32.5714V15.4286C33.7143 14.7974 33.2026 14.2857 32.5714 14.2857H15.4286ZM32 17.1429C32 16.5117 31.4883 16 30.8571 16C30.226 16 29.7143 16.5117 29.7143 17.1429C29.7143 17.774 30.226 18.2857 30.8571 18.2857C31.4883 18.2857 32 17.774 32 17.1429ZM29.1429 24C29.1429 26.8403 26.8403 29.1429 24 29.1429C21.1597 29.1429 18.8571 26.8403 18.8571 24C18.8571 21.1597 21.1597 18.8571 24 18.8571C26.8403 18.8571 29.1429 21.1597 29.1429 24ZM26.8571 24C26.8571 25.578 25.578 26.8571 24 26.8571C22.422 26.8571 21.1429 25.578 21.1429 24C21.1429 22.422 22.422 21.1429 24 21.1429C25.578 21.1429 26.8571 22.422 26.8571 24Z" fill="white"/>
</svg>
